<?xml version="1.0" encoding="UTF-8" standalone="no"?>
<!DOCTYPE svg PUBLIC "-//W3C//DTD SVG 1.1//EN" "http://www.w3.org/Graphics/SVG/1.1/DTD/svg11.dtd">
<svg width="100%" height="100%" viewBox="0 0 1396 1463" version="1.1" xmlns="http://www.w3.org/2000/svg" xmlns:xlink="http://www.w3.org/1999/xlink" xml:space="preserve" xmlns:serif="http://www.serif.com/" style="fill-rule:evenodd;clip-rule:evenodd;stroke-linecap:round;stroke-linejoin:round;stroke-miterlimit:1.5;">
    <g transform="matrix(1,0,0,1,-1662.291024,-547.839755)">
        <g>
            <g transform="matrix(1,0,0,1,292.416095,114.541301)">
                <g>
                    <g transform="matrix(-1,-0,0,-1,4135.515499,2329.497492)">
                        <path d="M2525.625,433.715C2274.394,626.165 1890.039,661.371 1721.497,777.811C1300.098,1068.942 1360.845,1465.707 1393.703,1543.939C1425.633,1430.41 1479.503,1336.981 1599.781,1252.708C1806.928,1107.571 2274.939,1055.515 2480.315,905.698C2636.485,791.775 2572.183,589.111 2525.625,433.715Z" style="fill:url(#_Linear1);stroke:black;stroke-width:0.83px;"/>
                    </g>
                    <path d="M2525.625,433.715C2274.394,626.165 1890.039,661.371 1721.497,777.811C1300.098,1068.942 1360.845,1465.707 1393.703,1543.939C1425.633,1430.41 1479.503,1336.981 1599.781,1252.708C1806.928,1107.571 2274.939,1055.515 2480.315,905.698C2636.485,791.775 2572.183,589.111 2525.625,433.715Z" style="fill:url(#_Linear2);stroke:black;stroke-width:0.83px;"/>
                    <g transform="matrix(-1,-0,0,-1,4135.925925,2329.19593)">
                        <path d="M2526.02,437.47C2587.894,1045.655 1505.277,621.236 1393.921,1542.12C1360.627,1455.48 1307.301,1066.684 1721.394,779.088C1889.52,662.321 2273.329,626.132 2524.096,433.449C2524.345,433.492 2524.594,433.535 2524.843,433.579C2525.103,433.624 2525.364,433.67 2525.625,433.715C2525.761,434.971 2525.893,436.223 2526.02,437.47Z" style="fill:url(#_Linear3);"/>
                    </g>
                    <path d="M2525.625,433.715C2592.383,1047.804 1504.078,618.785 1393.703,1543.939C1360.845,1465.707 1300.098,1068.942 1721.497,777.811C1890.039,661.371 2274.394,626.165 2525.625,433.715Z" style="fill:url(#_Linear4);"/>
                    <g transform="matrix(0.597312,-0.172488,0.027509,0.095262,736.844313,1152.885477)">
                        <ellipse cx="2344.682" cy="852.056" rx="183.89" ry="136.771" style="fill:url(#_Radial5);"/>
                    </g>
                    <g transform="matrix(0.600725,-0.160198,0.025549,0.095807,730.512658,1732.6914)">
                        <ellipse cx="2344.682" cy="852.056" rx="183.89" ry="136.771" style="fill:url(#_Radial6);"/>
                    </g>
                </g>
                <g>
                    <g transform="matrix(-1,-0,0,-1,4135.515499,2329.497492)">
                        <path d="M2525.625,433.715C2274.394,626.165 1890.039,661.371 1721.497,777.811C1300.098,1068.942 1360.845,1465.707 1393.703,1543.939C1425.633,1430.41 1479.503,1336.981 1599.781,1252.708C1806.928,1107.571 2274.939,1055.515 2480.315,905.698C2636.485,791.775 2572.183,589.111 2525.625,433.715Z" style="fill:url(#_Linear7);stroke:black;stroke-width:0.83px;"/>
                    </g>
                    <path d="M2525.625,433.715C2274.394,626.165 1890.039,661.371 1721.497,777.811C1300.098,1068.942 1360.845,1465.707 1393.703,1543.939C1425.633,1430.41 1479.503,1336.981 1599.781,1252.708C1806.928,1107.571 2274.939,1055.515 2480.315,905.698C2636.485,791.775 2572.183,589.111 2525.625,433.715Z" style="fill:url(#_Linear8);stroke:black;stroke-width:0.83px;"/>
                    <g transform="matrix(-1,-0,0,-1,4135.925925,2329.19593)">
                        <path d="M2526.02,437.47C2587.894,1045.655 1505.277,621.236 1393.921,1542.12C1360.627,1455.48 1307.301,1066.684 1721.394,779.088C1889.52,662.321 2273.329,626.132 2524.096,433.449C2524.345,433.492 2524.594,433.535 2524.843,433.579C2525.103,433.624 2525.364,433.67 2525.625,433.715C2525.761,434.971 2525.893,436.223 2526.02,437.47Z" style="fill:url(#_Linear9);"/>
                    </g>
                    <path d="M2525.625,433.715C2592.383,1047.804 1504.078,618.785 1393.703,1543.939C1360.845,1465.707 1300.098,1068.942 1721.497,777.811C1890.039,661.371 2274.394,626.165 2525.625,433.715Z" style="fill:url(#_Linear10);"/>
                    <g transform="matrix(0.597312,-0.172488,0.027509,0.095262,736.844313,1152.885477)">
                        <ellipse cx="2344.682" cy="852.056" rx="183.89" ry="136.771" style="fill:url(#_Radial11);"/>
                    </g>
                    <g transform="matrix(0.600725,-0.160198,0.025549,0.095807,730.512658,1732.6914)">
                        <ellipse cx="2344.682" cy="852.056" rx="183.89" ry="136.771" style="fill:url(#_Radial12);"/>
                    </g>
                </g>
            </g>
        </g>
    </g>
    <defs>
        <linearGradient id="_Linear1" x1="0" y1="0" x2="1" y2="0" gradientUnits="userSpaceOnUse" gradientTransform="matrix(-1410.222535,925.287387,-925.287387,-1410.222535,2661.120987,515.886577)"><stop offset="0" style="stop-color:rgb(255,239,0);stop-opacity:1"/><stop offset="0.29" style="stop-color:rgb(255,244,163);stop-opacity:1"/><stop offset="0.67" style="stop-color:rgb(210,207,35);stop-opacity:1"/><stop offset="1" style="stop-color:rgb(155,137,19);stop-opacity:1"/></linearGradient>
        <linearGradient id="_Linear2" x1="0" y1="0" x2="1" y2="0" gradientUnits="userSpaceOnUse" gradientTransform="matrix(1385.971394,-958.33639,958.33639,1385.971394,1242.195086,1449.266379)"><stop offset="0" style="stop-color:rgb(4,9,149);stop-opacity:1"/><stop offset="0.33" style="stop-color:rgb(153,153,234);stop-opacity:1"/><stop offset="0.71" style="stop-color:rgb(74,73,255);stop-opacity:1"/><stop offset="1" style="stop-color:rgb(1,0,205);stop-opacity:1"/></linearGradient>
        <linearGradient id="_Linear3" x1="0" y1="0" x2="1" y2="0" gradientUnits="userSpaceOnUse" gradientTransform="matrix(1517.55183,0,0,1193.324259,1011.020152,947.276837)"><stop offset="0" style="stop-color:white;stop-opacity:1"/><stop offset="1" style="stop-color:white;stop-opacity:0"/></linearGradient>
        <linearGradient id="_Linear4" x1="0" y1="0" x2="1" y2="0" gradientUnits="userSpaceOnUse" gradientTransform="matrix(1517.55183,0,0,1193.324259,1011.020152,947.276837)"><stop offset="0" style="stop-color:white;stop-opacity:1"/><stop offset="1" style="stop-color:white;stop-opacity:0"/></linearGradient>
        <radialGradient id="_Radial5" cx="0" cy="0" r="1" gradientUnits="userSpaceOnUse" gradientTransform="matrix(-111.560232,117.484778,-138.921371,-87.07933,2344.681636,852.055913)"><stop offset="0" style="stop-color:white;stop-opacity:1"/><stop offset="1" style="stop-color:white;stop-opacity:0"/></radialGradient>
        <radialGradient id="_Radial6" cx="0" cy="0" r="1" gradientUnits="userSpaceOnUse" gradientTransform="matrix(-111.560232,117.484778,-138.921371,-87.07933,2344.681636,852.055913)"><stop offset="0" style="stop-color:white;stop-opacity:1"/><stop offset="1" style="stop-color:white;stop-opacity:0"/></radialGradient>
        <linearGradient id="_Linear7" x1="0" y1="0" x2="1" y2="0" gradientUnits="userSpaceOnUse" gradientTransform="matrix(-1410.222535,925.287387,-925.287387,-1410.222535,2661.120987,515.886577)"><stop offset="0" style="stop-color:rgb(255,239,0);stop-opacity:1"/><stop offset="0.29" style="stop-color:rgb(255,244,163);stop-opacity:1"/><stop offset="0.67" style="stop-color:rgb(210,207,35);stop-opacity:1"/><stop offset="1" style="stop-color:rgb(155,137,19);stop-opacity:1"/></linearGradient>
        <linearGradient id="_Linear8" x1="0" y1="0" x2="1" y2="0" gradientUnits="userSpaceOnUse" gradientTransform="matrix(1385.971394,-958.33639,958.33639,1385.971394,1242.195086,1449.266379)"><stop offset="0" style="stop-color:rgb(4,9,149);stop-opacity:1"/><stop offset="0.33" style="stop-color:rgb(153,153,234);stop-opacity:1"/><stop offset="0.71" style="stop-color:rgb(74,73,255);stop-opacity:1"/><stop offset="1" style="stop-color:rgb(1,0,205);stop-opacity:1"/></linearGradient>
        <linearGradient id="_Linear9" x1="0" y1="0" x2="1" y2="0" gradientUnits="userSpaceOnUse" gradientTransform="matrix(1517.55183,0,0,1193.324259,1011.020152,947.276837)"><stop offset="0" style="stop-color:white;stop-opacity:1"/><stop offset="1" style="stop-color:white;stop-opacity:0"/></linearGradient>
        <linearGradient id="_Linear10" x1="0" y1="0" x2="1" y2="0" gradientUnits="userSpaceOnUse" gradientTransform="matrix(1517.55183,0,0,1193.324259,1011.020152,947.276837)"><stop offset="0" style="stop-color:white;stop-opacity:1"/><stop offset="1" style="stop-color:white;stop-opacity:0"/></linearGradient>
        <radialGradient id="_Radial11" cx="0" cy="0" r="1" gradientUnits="userSpaceOnUse" gradientTransform="matrix(-111.560232,117.484778,-138.921371,-87.07933,2344.681636,852.055913)"><stop offset="0" style="stop-color:white;stop-opacity:1"/><stop offset="1" style="stop-color:white;stop-opacity:0"/></radialGradient>
        <radialGradient id="_Radial12" cx="0" cy="0" r="1" gradientUnits="userSpaceOnUse" gradientTransform="matrix(-111.560232,117.484778,-138.921371,-87.07933,2344.681636,852.055913)"><stop offset="0" style="stop-color:white;stop-opacity:1"/><stop offset="1" style="stop-color:white;stop-opacity:0"/></radialGradient>
    </defs>
</svg>
